<svg width="34" height="34" viewBox="0 0 34 34" fill="none" xmlns="http://www.w3.org/2000/svg">
<g id="find">
<rect id="back__COLOR:main-2" width="34" height="34" rx="17" fill="#3456F3"/>
<g id="icon">
<path id="text__COLOR:invisible" fill-rule="evenodd" clip-rule="evenodd" d="M18.7927 18.2634C17.3608 19.6953 15.0392 19.6953 13.6073 18.2634C12.1754 16.8315 12.1754 14.5099 13.6073 13.078C15.0392 11.646 17.3608 11.646 18.7927 13.078C20.2246 14.5099 20.2246 16.8315 18.7927 18.2634ZM19.2331 19.6464C17.2729 21.1458 14.4573 20.999 12.6645 19.2062C10.7118 17.2536 10.7118 14.0878 12.6645 12.1351C14.6171 10.1825 17.7829 10.1825 19.7355 12.1351C21.5283 13.9279 21.6751 16.7433 20.1759 18.7035L23.7426 22.2702L22.7998 23.213L19.2331 19.6464Z" fill="white"/>
</g>
</g>
</svg>
