<svg width="13" height="14" viewBox="0 0 13 14" fill="none" xmlns="http://www.w3.org/2000/svg">
<path fill-rule="evenodd" clip-rule="evenodd" d="M7.79268 8.2634C6.36075 9.69532 4.03915 9.69532 2.60723 8.2634C1.1753 6.83148 1.1753 4.50987 2.60723 3.07795C4.03915 1.64603 6.36075 1.64603 7.79268 3.07795C9.2246 4.50987 9.2246 6.83148 7.79268 8.2634ZM8.23306 9.64636C6.27283 11.1458 3.45724 10.999 1.66442 9.20621C-0.288204 7.25359 -0.288204 4.08776 1.66442 2.13514C3.61704 0.182522 6.78286 0.182522 8.73549 2.13514C10.5282 3.92789 10.675 6.74331 9.17584 8.70352L12.7425 12.2702L11.7997 13.213L8.23306 9.64636Z" fill="#959595"/>
</svg>
